<?xml version="1.0" standalone="no"?>
<!DOCTYPE svg PUBLIC "-//W3C//DTD SVG 20010904//EN"
 "http://www.w3.org/TR/2001/REC-SVG-20010904/DTD/svg10.dtd">
<svg version="1.0" xmlns="http://www.w3.org/2000/svg"
 width="100.000000pt" height="100.000000pt" viewBox="0 0 100.000000 100.000000"
 preserveAspectRatio="xMidYMid meet">
<metadata>
Created by potrace 1.11, written by Peter Selinger 2001-2013
</metadata>
<g transform="translate(0.000000,100.000000) scale(0.100000,-0.100000)"
fill="#000000" stroke="none">
<path d="M41 961 l-31 -29 0 -430 0 -430 29 -31 29 -31 432 0 432 0 29 31 c34
36 31 -11 29 502 -1 203 -5 379 -10 391 -4 12 -20 30 -34 39 -23 15 -70 17
-450 17 l-424 0 -31 -29z m888 -37 c12 -15 17 -39 16 -85 l-1 -64 -444 0 -444
0 -1 63 c-1 46 3 70 16 86 l17 22 412 -1 c406 0 412 0 429 -21z m16 -517 c1
-299 0 -319 -18 -335 -17 -15 -56 -17 -428 -17 -378 0 -410 1 -426 18 -16 16
-18 44 -19 330 0 172 1 315 2 318 2 3 202 5 446 5 l443 -1 0 -318z"/>
<path d="M248 873 c-10 -12 -9 -17 5 -28 23 -16 69 -7 65 13 -4 23 -54 34 -70
15z"/>
<path d="M120 861 c0 -20 23 -30 53 -23 9 2 17 13 17 23 0 15 -7 19 -35 19
-28 0 -35 -4 -35 -19z"/>
<path d="M554 582 c-6 -4 -41 -88 -77 -187 -54 -144 -65 -182 -55 -192 7 -7
18 -9 24 -5 6 4 40 88 77 187 53 143 64 182 54 192 -6 7 -17 9 -23 5z"/>
<path d="M292 445 l-57 -55 57 -55 c59 -58 75 -65 85 -39 4 11 -8 30 -36 57
l-42 40 42 37 c29 26 40 42 36 53 -10 27 -25 20 -85 -38z"/>
<path d="M623 483 c-5 -12 6 -27 36 -51 l42 -35 -42 -43 c-27 -28 -40 -48 -36
-58 10 -26 26 -19 84 38 l56 53 -18 24 c-22 29 -94 89 -106 89 -5 0 -13 -8
-16 -17z"/>
</g>
</svg>
